# xmcd
#
# Track frame offsets: 
#        150
#        20052
#        35202
#        50482
#        69060
#        82862
#        93232
#        105050
#        120325
#        129665
#        141902
#        154920
#        169435
#        180305
#        191745
#
# Disc length: 2778 seconds
#
# Revision: 2
# Processed by: cddbd v1.5.1PL2 Copyright (c) Steve Scherf et al.
# Submitted via: ExactAudioCopy v0.95b4
#
DISCID=c00ad80f
DTITLE=Leslie Avril - Champagne and Desolation
DYEAR=1994
DGENRE=Country
TTITLE0=Desert Sky
TTITLE1=Cowgirls Heart
TTITLE2=I Want You Back
TTITLE3=W.O.M.A.N.
TTITLE4=The Station
TTITLE5=Prowling Around
TTITLE6=Looking Everywhere
TTITLE7=Don't Come The Cowboy
TTITLE8=Cowboys Sweetheart
TTITLE9=Lay Your Burden's Down
TTITLE10=Firewoman
TTITLE11=Raining So Hard
TTITLE12=Single Girl Again
TTITLE13=Superwoman
TTITLE14=Champagne and Desolation
EXTD=
EXTT0=
EXTT1=
EXTT2=
EXTT3=
EXTT4=
EXTT5=
EXTT6=
EXTT7=
EXTT8=
EXTT9=
EXTT10=
EXTT11=
EXTT12=
EXTT13=
EXTT14=
PLAYORDER=
